<?xml version="1.0" standalone="no"?>
<!DOCTYPE svg PUBLIC "-//W3C//DTD SVG 20010904//EN"
 "http://www.w3.org/TR/2001/REC-SVG-20010904/DTD/svg10.dtd">
<svg version="1.0" xmlns="http://www.w3.org/2000/svg"
 width="16.000000pt" height="16.000000pt" viewBox="0 0 16.000000 16.000000"
 preserveAspectRatio="xMidYMid meet">
<metadata>
Created by potrace 1.11, written by Peter Selinger 2001-2013
</metadata>
<g transform="translate(0.000000,16.000000) scale(0.002041,-0.002041)"
fill="#000000" stroke="none">
<path d="M1927 7268 c-14 -24 -35 -62 -48 -85 -125 -222 -245 -431 -254 -443
-7 -8 -25 -40 -41 -70 -16 -30 -31 -57 -34 -60 -3 -3 -12 -18 -21 -35 -9 -16
-42 -75 -75 -130 -32 -55 -58 -103 -57 -107 2 -3 -4 -12 -12 -18 -8 -7 -15
-16 -15 -21 0 -11 -73 -133 -85 -141 -5 -4 -6 -8 -2 -8 5 0 -1 -13 -12 -29
-12 -16 -21 -32 -21 -35 0 -3 -16 -30 -35 -60 -19 -30 -35 -57 -35 -60 0 -2
-20 -39 -45 -80 -25 -42 -45 -78 -45 -80 0 -2 -25 -45 -55 -95 -30 -51 -55
-94 -55 -96 0 -2 -25 -45 -55 -96 -30 -50 -55 -93 -55 -94 0 -2 -23 -43 -51
-92 -53 -90 -75 -128 -108 -185 -10 -18 -104 -183 -210 -366 -105 -184 -191
-336 -191 -340 0 -3 -6 -13 -14 -21 -8 -9 -26 -38 -40 -66 -15 -27 -31 -57
-36 -65 -6 -8 -57 -97 -115 -198 l-105 -183 32 -57 c17 -31 38 -69 47 -84 9
-14 34 -57 56 -95 22 -37 44 -76 50 -85 5 -9 23 -41 39 -70 16 -29 46 -81 67
-116 22 -35 39 -65 39 -67 0 -2 26 -48 58 -102 32 -54 61 -105 65 -113 4 -8
16 -30 27 -48 11 -18 71 -122 134 -230 62 -108 157 -273 211 -367 55 -93 107
-186 118 -205 10 -19 26 -47 35 -62 14 -23 280 -483 371 -642 13 -22 99 -173
193 -334 93 -161 178 -308 188 -327 42 -73 63 -111 81 -140 10 -16 24 -41 32
-55 21 -39 57 -101 84 -147 l25 -43 1961 0 1962 0 55 97 c30 54 67 118 82 143
15 25 33 56 40 70 8 14 65 113 128 220 133 229 117 202 263 455 64 110 121
205 126 212 6 7 11 14 11 17 0 3 13 27 29 54 15 26 39 68 53 93 14 24 55 95
92 157 36 62 66 117 66 122 0 4 4 10 8 12 5 1 28 39 52 83 24 44 47 82 52 83
4 2 8 8 8 13 0 5 18 39 40 75 22 36 40 68 40 70 0 2 24 43 53 91 29 48 56 95
60 103 4 8 18 33 32 55 13 22 35 58 47 80 12 22 28 49 35 60 6 11 20 36 31 55
10 19 47 81 80 138 34 57 62 108 62 113 0 5 5 9 10 9 6 0 10 4 10 10 0 5 23
47 50 94 28 47 50 89 50 95 0 6 3 11 8 11 4 0 12 10 18 23 6 12 35 63 64 112
29 50 64 110 78 135 13 25 28 50 32 55 5 6 23 37 41 70 18 33 37 63 42 66 19
13 9 57 -21 102 -17 24 -29 47 -26 49 2 3 -2 11 -11 18 -8 7 -15 19 -15 26 0
8 -4 14 -10 14 -5 0 -10 4 -10 10 0 5 -64 119 -142 252 -77 134 -152 263 -166
288 -13 25 -38 67 -55 94 -17 27 -32 56 -34 64 -1 8 -6 18 -11 21 -5 3 -21 29
-37 56 -15 28 -60 106 -100 175 -40 69 -82 141 -93 160 -11 19 -43 76 -72 125
-29 50 -64 110 -78 135 -13 25 -28 50 -32 55 -4 6 -19 30 -32 55 -50 89 -250
435 -258 445 -8 11 -54 91 -81 143 -9 18 -22 38 -27 45 -5 7 -23 37 -39 67
-16 30 -44 80 -62 110 -44 75 -43 72 -107 185 -31 55 -66 112 -76 128 -11 15
-17 27 -13 27 3 0 1 6 -5 13 -6 6 -31 48 -57 92 -25 44 -54 92 -64 107 -11 15
-19 29 -19 32 0 3 -35 65 -77 138 -43 73 -87 150 -98 171 l-20 37 -1962 0
-1962 0 -24 -42z m4092 -1639 c190 -8 302 -124 302 -311 0 -137 -47 -254 -124
-306 -39 -27 -120 -56 -142 -52 -6 2 -12 1 -15 0 -3 -1 -790 -4 -1750 -5 -960
-1 -1756 -5 -1770 -9 -14 -3 -40 -9 -57 -12 -18 -3 -33 -9 -33 -13 0 -4 -16
-13 -35 -19 -50 -19 -112 -94 -132 -161 -29 -102 -21 -249 18 -322 35 -64 84
-105 161 -136 40 -15 154 -17 1438 -19 1284 -2 1593 -5 1675 -18 65 -11 131
-25 158 -35 15 -6 27 -9 27 -6 0 2 36 -11 81 -30 79 -33 165 -82 204 -117 88
-77 137 -136 183 -218 35 -63 92 -206 85 -214 -3 -2 -1 -11 3 -18 9 -14 10
-16 18 -68 20 -118 24 -185 22 -356 -1 -104 -5 -195 -9 -201 -4 -6 -9 -26 -11
-44 -9 -59 -46 -180 -74 -238 -54 -114 -132 -210 -228 -281 -56 -42 -183 -110
-206 -110 -8 0 -18 -4 -24 -9 -10 -10 -163 -49 -229 -58 -22 -4 -866 -8 -1875
-10 -1949 -3 -1870 -5 -1959 41 -57 30 -108 99 -126 171 -12 48 -14 180 -4
226 28 123 98 196 218 226 14 3 820 7 1791 8 971 2 1776 5 1790 8 83 17 110
30 167 78 31 26 71 100 80 148 17 92 2 236 -32 300 -35 69 -111 120 -205 137
-25 4 -702 9 -1505 10 -803 1 -1476 4 -1495 8 -19 3 -46 8 -60 11 -13 2 -42 7
-65 11 -50 7 -185 54 -245 84 -163 82 -294 227 -359 395 -13 33 -27 67 -31 76
-4 8 -13 40 -19 70 -6 30 -14 65 -17 79 -18 86 -25 374 -11 480 15 121 23 156
53 246 28 83 39 107 89 189 43 71 144 185 164 185 5 0 11 4 13 8 9 23 175 114
248 137 35 10 99 28 115 31 11 2 31 6 45 9 65 13 92 16 180 22 52 3 96 6 97 7
3 2 3363 -2 3422 -5z"/>
</g>
</svg>
