<?xml version="1.0" encoding="utf-8"?>
<!-- Generator: Adobe Illustrator 19.0.0, SVG Export Plug-In . SVG Version: 6.00 Build 0)  -->
<svg version="1.1" id="Layer_1" xmlns="http://www.w3.org/2000/svg" xmlns:xlink="http://www.w3.org/1999/xlink" x="0px" y="0px"
	 viewBox="0 0 249.9 207.4" style="enable-background:new 0 0 249.9 207.4;" xml:space="preserve">
<polygon id="XMLID_43_" style="fill:#131313;" points="9.7,198 57.7,198 57.7,204.3 1.6,204.9 "/>
<polygon id="XMLID_42_" style="fill:#3C3C3C;" points="11.3,151 11.1,198 5,203.2 5,150.6 "/>
<polygon id="XMLID_41_" style="fill:#131313;" points="241.3,199.2 193.3,199.2 193.3,205.4 249.4,206.1 "/>
<polygon id="XMLID_40_" style="fill:#3C3C3C;" points="239.8,152.2 240,199.2 246,204.4 246,151.8 "/>
<path id="XMLID_35_" style="fill:#101010;" d="M125,146H0.5v61.4h62l0-6H125h62.5l0,6h62V146H125z M6.6,202.2l-0.1-50l49.6,0
	l0.1,20.5v17.1l0,12.2L6.6,202.2z M181,195.5h-56H69l-0.2-42.7l56.2-0.2l56.2,0.2L181,195.5z M243.3,202.2l-49.6-0.2l0-12.2v-17.1
	l0.1-20.5l49.6,0L243.3,202.2z"/>
<polygon id="XMLID_34_" style="fill:#161616;" points="243.4,138.1 6.5,138.1 0.1,146.5 249.9,146.5 "/>
<polygon id="XMLID_33_" style="fill:#484848;" points="94.8,143.2 146.5,143.2 148.5,135.3 91.7,135.3 "/>
<rect id="XMLID_32_" x="108" y="121.7" style="fill:#0D0D0D;" width="23.1" height="15.6"/>
<path id="XMLID_29_" d="M119.6,0H23.3v122.5h96.3h96.3V0H119.6z M210.5,117.3l-90.9-0.1l-90.9,0.1V4.8l90.9,0h90.9V117.3z"/>
<g id="XMLID_1_">
	<rect id="XMLID_28_" x="66.8" y="151.2" style="fill:#020202;" width="116.8" height="46.8"/>
	<rect id="XMLID_27_" x="68" y="152.6" style="fill:#101010;" width="114" height="22"/>
	<rect id="XMLID_26_" x="68" y="176.7" style="fill:#101010;" width="53.3" height="19"/>
	<rect id="XMLID_25_" x="126.8" y="176.7" style="fill:#101010;" width="55.3" height="19"/>
</g>
<g id="Layer_5">
	<path id="XMLID_15_" style="fill:#BEBEBE;" d="M79.2,162.1c7.6,6.6,18.5,1.2,19.3,0c0.8-1.3-0.1-1.4-0.5-1.2c-10.4,4.9-18,0-18.6,0
		C78.4,160.8,78.9,161.8,79.2,162.1z"/>
	<path id="XMLID_11_" style="fill:#BEBEBE;" d="M148.9,162.6c7.6,6.6,18.5,1.2,19.3,0c0.8-1.3-0.1-1.4-0.5-1.2
		c-10.4,4.9-18,0-18.6,0C148.1,161.4,148.6,162.3,148.9,162.6z"/>
	<path id="XMLID_16_" style="fill:#BEBEBE;" d="M79.2,185.2c7.6,6.6,18.5,1.2,19.3,0c0.8-1.3-0.1-1.4-0.5-1.2c-10.4,4.9-18,0-18.6,0
		C78.4,184,78.9,185,79.2,185.2z"/>
	<path id="XMLID_17_" style="fill:#BEBEBE;" d="M148.9,185.2c7.6,6.6,18.5,1.2,19.3,0c0.8-1.3-0.1-1.4-0.5-1.2
		c-10.4,4.9-18,0-18.6,0C148.1,184,148.6,185,148.9,185.2z"/>
</g>
<rect id="ScreenBounds" x="28.7" y="4.8" style="fill:none;" width="181.9" height="112.5"/>
</svg>
