<?xml version="1.0" encoding="utf-8"?>
<!-- Generator: Adobe Illustrator 19.0.0, SVG Export Plug-In . SVG Version: 6.00 Build 0)  -->
<svg version="1.1" id="Layer_1" xmlns="http://www.w3.org/2000/svg" xmlns:xlink="http://www.w3.org/1999/xlink" x="0px" y="0px"
	 viewBox="0 0 48.6 42.1" style="enable-background:new 0 0 48.6 42.1;" xml:space="preserve">
<style type="text/css">
	.st0{fill:#3450A3;}
</style>
<path id="XMLID_6_" class="st0" d="M0,21.1L12.1,0h24.3l12.2,21.1l-12.2,21H12.1L0,21.1z M9.8,16.8c0,4.2,2.1,6.3,6.3,6.3h16.8
	c1.4,0,2.1,0.7,2.1,2.1c0,1.4-0.7,2.1-2.1,2.1H11.9c-1.4,0-2.1,0.7-2.1,2.1c0,1.4,0.7,2.1,2.1,2.1H33c4.2,0,6.4-2.1,6.3-6.3
	c0-4.2-2.1-6.3-6.4-6.3H16.1c-1.4,0-2.2-0.7-2.2-2.1c0-1.4,0.7-2.1,2.2-2.2h21c1.4,0,2-0.7,2.1-2.1c0-1.4-0.7-2.1-2.1-2.1l-21.1,0
	C11.9,10.5,9.8,12.6,9.8,16.8z"/>
</svg>
