<?xml version="1.0" encoding="utf-8"?>
<!-- Generator: Adobe Illustrator 19.0.0, SVG Export Plug-In . SVG Version: 6.00 Build 0)  -->
<svg version="1.1" id="Layer_1" xmlns="http://www.w3.org/2000/svg" xmlns:xlink="http://www.w3.org/1999/xlink" x="0px" y="0px"
	 viewBox="0 0 472.5 63.2" style="enable-background:new 0 0 472.5 63.2;" xml:space="preserve">
<style type="text/css">
	.st0{fill:#3450A3;}
	.st1{fill:#2BB34B;}
	.st2{fill:#DB2448;}
	.st3{fill:#FEDA21;}
	.st4{fill:#4DB1E4;}
	.st5{fill:#E34599;}
	.st6{fill:#2B2369;}
	.st7{fill:#246E48;}
	.st8{fill:#F36E2A;}
	.st9{fill:#664EA0;}
</style>
<g id="XMLID_5_">
	<path id="XMLID_6_" class="st0" d="M0,21.1L12.1,0h24.3l12.2,21.1l-12.2,21H12.1L0,21.1z M9.8,16.8c0,4.2,2.1,6.3,6.3,6.3h16.8
		c1.4,0,2.1,0.7,2.1,2.1c0,1.4-0.7,2.1-2.1,2.1H11.9c-1.4,0-2.1,0.7-2.1,2.1c0,1.4,0.7,2.1,2.1,2.1H33c4.2,0,6.4-2.1,6.3-6.3
		c0-4.2-2.1-6.3-6.4-6.3H16.1c-1.4,0-2.2-0.7-2.2-2.1c0-1.4,0.7-2.1,2.2-2.2h21c1.4,0,2-0.7,2.1-2.1c0-1.4-0.7-2.1-2.1-2.1l-21.1,0
		C11.9,10.5,9.8,12.6,9.8,16.8z"/>
	<path id="XMLID_9_" class="st1" d="M40.4,42.2l12.1-21.1h24.3L89,42.2l-12.2,21H52.5L40.4,42.2z M52.3,52.7c1.4,0,2.1-0.7,2.1-2.1
		v-6.4h19.1c4.2,0,6.4-2.1,6.4-6.3c0-4.2-2.1-6.3-6.4-6.3H52.3c-1.4,0-2.1,0.7-2.1,2.1v16.9C50.2,52,50.9,52.7,52.3,52.7z
		 M75.6,37.9c0,1.4-0.7,2.1-2.1,2.1H54.4v-4.3h19.1C74.9,35.7,75.6,36.5,75.6,37.9z"/>
	<path id="XMLID_13_" class="st2" d="M80.8,21.1L92.9,0h24.3l12.2,21.1l-12.2,21H92.9L80.8,21.1z M92.4,31.5c1.2,0,2-0.7,2.4-2.1
		l1.3-6.4h18.2l1.7,6.3c0.4,1.5,1.2,2.2,2.4,2.2c1.2,0,1.8-0.7,1.8-2.1l-3.9-16.9c-0.3-1.4-1.1-2.1-2.5-2.1H96.9
		c-1.4,0-2.3,0.7-2.7,2.1l-3.7,16.9C90.6,30.8,91.2,31.5,92.4,31.5z M96.8,18.8l1-4.3h14.8l1.1,4.3H96.8z"/>
	<path id="XMLID_17_" class="st3" d="M121.2,42.2l12.1-21.1h24.3l12.2,21.1l-12.2,21h-24.3L121.2,42.2z M131,39.9v4.2
		c0,5.6,2.8,8.5,8.4,8.5h19c1.4,0,2.1-0.7,2.1-2.1c0-1.4-0.7-2.1-2.1-2.1h-19c-2.8,0-4.2-1.4-4.2-4.3v-4.2c0-2.8,1.4-4.2,4.2-4.3h19
		c1.4,0,2-0.7,2-2.1c0-1.4-0.7-2.1-2-2.1l-19,0C133.8,31.5,131,34.3,131,39.9z"/>
	<path id="XMLID_20_" class="st4" d="M161.6,42.2l12.1-21.1H198l12.2,21.1l-12.2,21h-24.3L161.6,42.2z M173.5,52.6h25.4
		c1.4,0,2.1-0.7,2.1-2.1s-0.7-2.1-2.1-2.1h-23.3v-4.3h19.1c1.4,0,2.1-0.7,2.1-2.1s-0.7-2.1-2.1-2.1h-19.1v-4.2h23.3
		c1.4,0,2.1-0.7,2.1-2.1c0-1.4-0.7-2.1-2.1-2.1h-25.4c-1.4,0-2.1,0.7-2.1,2.1v16.9C171.4,51.9,172.1,52.6,173.5,52.6z"/>
	<path id="XMLID_23_" d="M222,21.1L234.1,0h24.3l12.2,21.1l-12.2,21h-24.3L222,21.1z M233.8,31.5c1.4,0,2.1-0.7,2.1-2.1v-6.4H255
		c4.2,0,6.4-2.1,6.4-6.3c0-4.2-2.1-6.3-6.4-6.3h-21.2c-1.4,0-2.1,0.7-2.1,2.1v16.9C231.8,30.8,232.4,31.5,233.8,31.5z M257.2,16.7
		c0,1.4-0.7,2.1-2.1,2.1H236v-4.3h19.1C256.4,14.6,257.1,15.3,257.2,16.7z"/>
	<path id="XMLID_27_" class="st5" d="M262.4,42.2l12.1-21.1h24.3L311,42.2l-12.2,21h-24.3L262.4,42.2z M284.9,33.6v16.9
		c0,1.4,0.7,2.1,2.1,2.1s2.1-0.7,2.1-2.1V33.6c0-1.4-0.7-2.1-2.1-2.1S284.9,32.2,284.9,33.6z"/>
	<path id="XMLID_30_" class="st6" d="M302.8,21.1L314.9,0h24.3l12.2,21.1l-12.2,21h-24.3L302.8,21.1z M341.5,11.4
		c-0.8-1.2-1.8-1.4-3-0.6l-11.3,7.6l-11.4-7.6c-1.2-0.8-2.1-0.5-2.9,0.6s-0.6,2.1,0.6,2.9l9.8,6.6l-9.8,6.6
		c-1.2,0.8-1.4,1.7-0.6,2.9c0.8,1.2,1.7,1.4,2.9,0.6l11.4-7.6l11.3,7.6c1.1,0.8,2.1,0.6,2.9-0.6c0.8-1.2,0.6-2.1-0.6-2.9l-9.7-6.6
		l9.7-6.6C342.1,13.5,342.3,12.6,341.5,11.4z"/>
	<path id="XMLID_33_" class="st7" d="M343.2,42.2l12.1-21.1h24.3l12.2,21.1l-12.2,21h-24.3L343.2,42.2z M355,52.6h25.4
		c1.4,0,2.1-0.7,2.1-2.1s-0.7-2.1-2.1-2.1h-23.3v-4.3h19.1c1.4,0,2.1-0.7,2.1-2.1s-0.7-2.1-2.1-2.1h-19.1v-4.2h23.3
		c1.4,0,2.1-0.7,2.1-2.1c0-1.4-0.7-2.1-2.1-2.1H355c-1.4,0-2.1,0.7-2.1,2.1v16.9C352.9,51.9,353.6,52.6,355,52.6z"/>
	<path id="XMLID_36_" class="st8" d="M383.6,42.2l12.1-21.1H420l12.2,21.1l-12.2,21h-24.3L383.6,42.2z M393.2,33.6v16.9
		c0,1.4,0.7,2.1,2.1,2.1h25.4c1.4,0,2.1-0.7,2.1-2.1v-4.2c0-1.5-0.7-2.2-2.1-2.2s-2.1,0.7-2.1,2.1l0,2.1h-21.2V33.6
		c0-1.4-0.7-2.1-2.1-2.1S393.2,32.2,393.2,33.6z"/>
	<path id="XMLID_39_" class="st9" d="M423.9,21.1L436.1,0h24.3l12.2,21.1l-12.2,21h-24.3L423.9,21.1z M433.7,16.8
		c0,4.2,2.1,6.3,6.3,6.3h16.8c1.4,0,2.1,0.7,2.1,2.1s-0.7,2.1-2.1,2.1h-21.1c-1.4,0-2.1,0.7-2.1,2.1c0,1.4,0.7,2.1,2.1,2.1h21.1
		c4.2,0,6.4-2.1,6.3-6.3s-2.1-6.3-6.4-6.3h-16.8c-1.4,0-2.2-0.7-2.2-2.1c0-1.4,0.7-2.1,2.2-2.2h21c1.4,0,2-0.7,2.1-2.1
		c0-1.4-0.7-2.1-2.1-2.1l-21.1,0C435.8,10.5,433.7,12.6,433.7,16.8z"/>
</g>
</svg>
